# Blender v2.74 (sub 0) OBJ File: ''
# www.blender.org
v 0.000000 -0.500000 0.000000
v 0.361804 -0.223610 0.262863
v -0.138194 -0.223610 0.425325
v -0.447213 -0.223608 0.000000
v -0.138194 -0.223610 -0.425325
v 0.361804 -0.223610 -0.262863
v 0.138194 0.223610 0.425325
v -0.361804 0.223610 0.262863
v -0.361804 0.223610 -0.262863
v 0.138194 0.223610 -0.425325
v 0.447213 0.223608 0.000000
v 0.000000 0.500000 0.000000
v -0.081228 -0.425327 0.249998
v 0.212661 -0.425327 0.154506
v 0.131434 -0.262869 0.404506
v 0.425324 -0.262868 0.000000
v 0.212661 -0.425327 -0.154506
v -0.262865 -0.425326 0.000000
v -0.344095 -0.262868 0.249998
v -0.081228 -0.425327 -0.249998
v -0.344095 -0.262868 -0.249998
v 0.131434 -0.262869 -0.404506
v 0.475529 0.000000 0.154506
v 0.475529 0.000000 -0.154506
v 0.000000 0.000000 0.500000
v 0.293893 0.000000 0.404508
v -0.475529 0.000000 0.154506
v -0.293893 0.000000 0.404508
v -0.293893 0.000000 -0.404508
v -0.475529 0.000000 -0.154506
v 0.293893 0.000000 -0.404508
v 0.000000 0.000000 -0.500000
v 0.344095 0.262868 0.249998
v -0.131434 0.262869 0.404506
v -0.425324 0.262868 0.000000
v -0.131434 0.262869 -0.404506
v 0.344095 0.262868 -0.249998
v 0.081228 0.425327 0.249998
v 0.262865 0.425326 0.000000
v -0.212661 0.425327 0.154506
v -0.212661 0.425327 -0.154506
v 0.081228 0.425327 -0.249998
vt 0.262860 0.908608
vt 0.181582 0.999897
vt 0.178588 0.866020
vt 0.169649 0.121732
vt 0.181748 0.000102
vt 0.262860 0.106654
vt 0.262860 0.822483
vt 0.347132 0.866020
vt 0.344138 0.999897
vt 0.220272 0.191410
vt 0.112041 0.799033
vt 0.050337 0.904545
vt 0.000102 0.749940
vt 0.262860 0.750028
vt 0.193951 0.772418
vt 0.220272 0.691410
vt 0.413679 0.799033
vt 0.331768 0.772418
vt 0.399215 0.705723
vt 0.356070 0.121732
vt 0.475485 0.095652
vt 0.399215 0.205723
vt 0.126504 0.205723
vt 0.126504 0.705723
vt 0.305447 0.691410
vt 0.525617 0.749940
vt 0.305447 0.191410
vt 0.112041 0.299033
vt 0.193951 0.272418
vt 0.178588 0.366020
vt 0.169650 0.621732
vt 0.050235 0.595651
vt 0.181748 0.500103
vt 0.356070 0.621732
vt 0.262860 0.606654
vt 0.343972 0.500103
vt 0.413679 0.299033
vt 0.475382 0.404545
vt 0.347132 0.366020
vt 0.262860 0.250028
vt 0.331768 0.272418
vt 0.262860 0.322483
vt 0.262860 0.408608
vt 0.344138 0.499898
vt 0.475485 0.595652
vt 0.181582 0.499897
vt 0.050337 0.404545
vt 0.525617 0.249940
vt 0.000102 0.249940
vt 0.475382 0.904545
vt 0.050235 0.095652
vt 0.343972 0.000102
vn 0.102400 -0.943500 0.315100
vn 0.700200 -0.661700 0.268000
vn -0.268000 -0.943500 0.194700
vn -0.268000 -0.943500 -0.194700
vn 0.102400 -0.943500 -0.315100
vn 0.905000 -0.330400 0.268000
vn 0.024700 -0.330400 0.943500
vn -0.889700 -0.330400 0.315100
vn -0.574600 -0.330400 -0.748800
vn 0.534600 -0.330400 -0.777900
vn 0.802600 -0.125600 0.583100
vn -0.306600 -0.125600 0.943500
vn -0.992100 -0.125600 0.000000
vn -0.306600 -0.125600 -0.943500
vn 0.802600 -0.125600 -0.583100
vn 0.408900 0.661700 0.628400
vn -0.471300 0.661700 0.583100
vn -0.700200 0.661700 -0.268000
vn 0.038500 0.661700 -0.748800
vn 0.724000 0.661700 -0.194700
vn 0.268000 0.943500 -0.194700
vn 0.491100 0.794700 -0.356800
vn 0.408900 0.661700 -0.628400
vn -0.102400 0.943500 -0.315100
vn -0.187600 0.794700 -0.577300
vn -0.471300 0.661700 -0.583100
vn -0.331300 0.943500 0.000000
vn -0.607100 0.794700 0.000000
vn -0.700200 0.661700 0.268000
vn -0.102400 0.943500 0.315100
vn -0.187600 0.794700 0.577300
vn 0.038500 0.661700 0.748800
vn 0.268000 0.943500 0.194700
vn 0.491100 0.794700 0.356800
vn 0.724000 0.661700 0.194700
vn 0.889700 0.330400 -0.315100
vn 0.794700 0.187600 -0.577300
vn 0.574600 0.330400 -0.748800
vn -0.024700 0.330400 -0.943500
vn -0.303500 0.187600 -0.934200
vn -0.534600 0.330400 -0.777900
vn -0.905000 0.330400 -0.268000
vn -0.982200 0.187600 0.000000
vn -0.905000 0.330400 0.268000
vn -0.534600 0.330400 0.777900
vn -0.303500 0.187600 0.934200
vn -0.024700 0.330400 0.943500
vn 0.574600 0.330400 0.748800
vn 0.794700 0.187600 0.577300
vn 0.889700 0.330400 0.315100
vn 0.306600 0.125600 -0.943500
vn 0.303500 -0.187600 -0.934200
vn 0.024700 -0.330400 -0.943500
vn -0.802600 0.125600 -0.583100
vn -0.794700 -0.187600 -0.577300
vn -0.889700 -0.330400 -0.315100
vn -0.802600 0.125600 0.583100
vn -0.794700 -0.187600 0.577300
vn -0.574600 -0.330400 0.748800
vn 0.306600 0.125600 0.943500
vn 0.303500 -0.187600 0.934200
vn 0.534600 -0.330400 0.777900
vn 0.992100 0.125600 0.000000
vn 0.982200 -0.187600 0.000000
vn 0.905000 -0.330400 -0.268000
vn 0.471300 -0.661700 -0.583100
vn 0.187600 -0.794700 -0.577300
vn -0.038500 -0.661700 -0.748800
vn -0.408900 -0.661700 -0.628400
vn -0.491100 -0.794700 -0.356800
vn -0.724000 -0.661700 -0.194700
vn -0.724000 -0.661700 0.194700
vn -0.491100 -0.794700 0.356800
vn -0.408900 -0.661700 0.628400
vn 0.700200 -0.661700 -0.268000
vn 0.607100 -0.794700 0.000000
vn 0.331300 -0.943500 0.000000
vn -0.038500 -0.661700 0.748800
vn 0.187600 -0.794700 0.577300
vn 0.471300 -0.661700 0.583100
s off
f 1/1/1 14/2/1 13/3/1
f 2/4/2 14/5/2 16/6/2
f 1/1/3 13/3/3 18/7/3
f 1/1/4 18/7/4 20/8/4
f 1/1/5 20/8/5 17/9/5
f 2/4/6 16/6/6 23/10/6
f 3/11/7 15/12/7 25/13/7
f 4/14/8 19/15/8 27/16/8
f 5/17/9 21/18/9 29/19/9
f 6/20/10 22/21/10 31/22/10
f 2/4/11 23/10/11 26/23/11
f 3/11/12 25/13/12 28/24/12
f 4/14/13 27/16/13 30/25/13
f 5/17/14 29/19/14 32/26/14
f 6/20/15 31/22/15 24/27/15
f 7/28/16 33/29/16 38/30/16
f 8/31/17 34/32/17 40/33/17
f 9/34/18 35/35/18 41/36/18
f 10/37/19 36/38/19 42/39/19
f 11/40/20 37/41/20 39/42/20
f 39/42/21 42/39/21 12/43/21
f 39/42/22 37/41/22 42/39/22
f 37/41/23 10/37/23 42/39/23
f 42/39/24 41/44/24 12/43/24
f 42/39/25 36/38/25 41/44/25
f 36/45/26 9/34/26 41/36/26
f 41/44/27 40/46/27 12/43/27
f 41/36/28 35/35/28 40/33/28
f 35/35/29 8/31/29 40/33/29
f 40/46/30 38/30/30 12/43/30
f 40/46/31 34/47/31 38/30/31
f 34/47/32 7/28/32 38/30/32
f 38/30/33 39/42/33 12/43/33
f 38/30/34 33/29/34 39/42/34
f 33/29/35 11/40/35 39/42/35
f 24/27/36 37/41/36 11/40/36
f 24/27/37 31/22/37 37/41/37
f 31/22/38 10/37/38 37/41/38
f 32/48/39 36/38/39 10/37/39
f 32/26/40 29/19/40 36/45/40
f 29/19/41 9/34/41 36/45/41
f 30/25/42 35/35/42 9/34/42
f 30/25/43 27/16/43 35/35/43
f 27/16/44 8/31/44 35/35/44
f 28/24/45 34/32/45 8/31/45
f 28/24/46 25/13/46 34/32/46
f 25/49/47 7/28/47 34/47/47
f 26/23/48 33/29/48 7/28/48
f 26/23/49 23/10/49 33/29/49
f 23/10/50 11/40/50 33/29/50
f 31/22/51 32/48/51 10/37/51
f 31/22/52 22/21/52 32/48/52
f 22/50/53 5/17/53 32/26/53
f 29/19/54 30/25/54 9/34/54
f 29/19/55 21/18/55 30/25/55
f 21/18/56 4/14/56 30/25/56
f 27/16/57 28/24/57 8/31/57
f 27/16/58 19/15/58 28/24/58
f 19/15/59 3/11/59 28/24/59
f 25/49/60 26/23/60 7/28/60
f 25/49/61 15/51/61 26/23/61
f 15/51/62 2/4/62 26/23/62
f 23/10/63 24/27/63 11/40/63
f 23/10/64 16/6/64 24/27/64
f 16/6/65 6/20/65 24/27/65
f 17/52/66 22/21/66 6/20/66
f 17/9/67 20/8/67 22/50/67
f 20/8/68 5/17/68 22/50/68
f 20/8/69 21/18/69 5/17/69
f 20/8/70 18/7/70 21/18/70
f 18/7/71 4/14/71 21/18/71
f 18/7/72 19/15/72 4/14/72
f 18/7/73 13/3/73 19/15/73
f 13/3/74 3/11/74 19/15/74
f 16/6/75 17/52/75 6/20/75
f 16/6/76 14/5/76 17/52/76
f 14/2/77 1/1/77 17/9/77
f 13/3/78 15/12/78 3/11/78
f 13/3/79 14/2/79 15/12/79
f 14/5/80 2/4/80 15/51/80
